<?xml version="1.0" standalone="no"?><!DOCTYPE svg PUBLIC "-//W3C//DTD SVG 1.1//EN" "http://www.w3.org/Graphics/SVG/1.1/DTD/svg11.dtd"><svg t="1752890867068" class="icon" viewBox="0 0 1024 1024" version="1.1" xmlns="http://www.w3.org/2000/svg" p-id="3769" xmlns:xlink="http://www.w3.org/1999/xlink" width="200" height="200"><path d="M563.2 281.6c0-14.114133 11.485867-25.6 25.6-25.6s25.6 11.485867 25.6 25.6-11.485867 25.6-25.6 25.6-25.6-11.485867-25.6-25.6m-153.6 0c0-14.114133 11.485867-25.6 25.6-25.6s25.6 11.485867 25.6 25.6-11.485867 25.6-25.6 25.6-25.6-11.485867-25.6-25.6M163.703467 542.208c8.925867 52.036267 37.819733 96.221867 38.2464 96.8704a17.066667 17.066667 0 0 1-28.416 18.926933c-2.986667-4.488533-72.823467-110.933333-35.7888-203.554133a17.066667 17.066667 0 0 1 32.682666 3.5328c15.3088 91.784533 73.745067 122.845867 76.2368 124.125867 8.328533 4.3008 11.690667 14.557867 7.441067 22.920533a17.032533 17.032533 0 0 1-22.801067 7.5776c-2.2016-1.109333-39.509333-20.343467-67.601066-70.4m154.0096 434.210133a17.066667 17.066667 0 0 1 2.935466 23.9616C318.754133 1002.786133 301.380267 1024 273.066667 1024h-17.066667c-49.442133 0-85.333333-28.706133-85.333333-68.266667 0-35.140267 21.572267-58.641067 58.9312-65.8944C218.794667 864.068267 204.8 817.732267 204.8 750.933333c0-92.074667 64.785067-129.348267 99.054933-136.192a16.9984 16.9984 0 0 1 20.0704 13.380267 17.032533 17.032533 0 0 1-13.380266 20.0704C307.712 648.8064 238.933333 664.388267 238.933333 750.933333c0 95.095467 30.993067 143.7184 31.317334 144.213334A17.117867 17.117867 0 0 1 256 921.6c-51.2 0-51.2 25.685333-51.2 34.133333 0 22.408533 25.7536 34.133333 51.2 34.133334h17.066667c11.946667 0 20.599467-10.3936 20.6848-10.513067 5.802667-7.424 16.520533-8.704 23.9616-2.935467M853.333333 955.733333c0 39.560533-35.8912 68.266667-85.333333 68.266667h-17.066667c-28.3136 0-45.687467-21.213867-47.581866-23.620267a17.066667 17.066667 0 0 1 26.794666-21.1456c0.341333 0.4096 9.0112 10.632533 20.7872 10.632534h17.066667c25.4464 0 51.2-11.7248 51.2-34.133334 0-8.448 0-34.133333-51.2-34.133333a17.066667 17.066667 0 0 1-14.199467-26.538667C754.0736 894.651733 785.066667 846.0288 785.066667 750.933333c0-87.3984-68.693333-102.144-71.611734-102.741333a17.032533 17.032533 0 0 1-13.380266-20.0704 16.9984 16.9984 0 0 1 20.0704-13.380267C754.414933 621.585067 819.2 658.858667 819.2 750.933333c0 66.798933-13.994667 113.134933-24.797867 138.9056C831.761067 897.092267 853.333333 920.593067 853.333333 955.733333m-170.666666 0c0 39.560533-35.8912 68.266667-85.333334 68.266667h-17.066666a85.282133 85.282133 0 0 1-68.266667-34.184533A85.282133 85.282133 0 0 1 443.733333 1024h-17.066666c-49.442133 0-85.333333-28.706133-85.333334-68.266667 0-37.12 24.064-61.252267 65.399467-66.9696l-31.0272-186.2144a17.066667 17.066667 0 1 1 33.655467-5.632L441.122133 887.466667H443.733333a17.066667 17.066667 0 0 1 0 34.133333h-17.066666c-51.2 0-51.2 25.685333-51.2 34.133333 0 22.408533 25.7536 34.133333 51.2 34.133334h17.066666c28.228267 0 51.2-22.971733 51.2-51.2V699.733333a17.066667 17.066667 0 0 1 34.133334 0v238.933334c0 28.228267 22.971733 51.2 51.2 51.2h17.066666c25.4464 0 51.2-11.7248 51.2-34.133334 0-8.448 0-34.133333-51.2-34.133333h-17.066666a17.066667 17.066667 0 0 1 0-34.133333h2.6112l31.761066-190.549334a17.066667 17.066667 0 0 1 33.655467 5.632l-31.0272 186.2144C658.602667 894.481067 682.666667 918.613333 682.666667 955.733333M512 443.733333c-20.514133 0-34.133333-10.274133-34.133333-17.066666s13.6192-17.066667 34.133333-17.066667c20.8384 0 34.133333 10.103467 34.133333 17.066667 0 6.9632-13.294933 17.066667-34.133333 17.066666m87.227733 60.450134c-2.935467 5.6832-14.336 7.748267-18.961066 7.816533-19.985067 0-40.635733-17.015467-48.110934-36.573867C560.2304 469.077333 580.266667 450.048 580.266667 426.666667c0-28.706133-29.986133-51.2-68.266667-51.2-38.280533 0-68.266667 22.493867-68.266667 51.2 0 23.381333 20.036267 42.410667 48.110934 48.759466C484.386133 494.984533 463.735467 512 443.8528 512c-4.9152-0.068267-16.059733-2.133333-19.182933-8.004267a17.066667 17.066667 0 1 0-30.139734 16.008534C408.0128 545.399467 440.1152 546.133333 443.733333 546.133333c26.504533 0 52.138667-15.138133 68.266667-36.795733 16.128 21.6576 41.762133 36.795733 68.266667 36.795733 3.652267 0 36.113067-0.733867 49.3056-26.3168a17.066667 17.066667 0 1 0-30.344534-15.633066M716.8 426.666667c0 138.615467-53.589333 187.733333-204.8 187.733333s-204.8-49.117867-204.8-187.733333c0-178.397867 63.317333-358.4 204.8-358.4s204.8 180.002133 204.8 358.4M936.874667 145.9712C899.345067 70.929067 808.994133 0 750.933333 0c-32.955733 0-89.668267 51.0976-118.135466 78.9504C599.876267 50.7392 559.786667 34.133333 512 34.133333c-47.786667 0-87.876267 16.605867-120.797867 44.817067C362.734933 51.0976 306.0224 0 273.066667 0 215.005867 0 124.654933 70.929067 87.125333 145.9712 75.844267 168.533333 68.266667 199.031467 68.266667 221.866667c0 47.0528 38.280533 85.333333 85.333333 85.333333 42.410667 0 61.3888-27.886933 76.612267-50.295467 1.860267-2.7136 3.703467-5.444267 5.853866-8.4992l68.266667-102.4a17.066667 17.066667 0 0 0-28.398933-18.944l-68.010667 102.024534c-2.013867 2.850133-3.976533 5.7344-5.9392 8.618666C186.641067 260.283733 176.810667 273.066667 153.6 273.066667c-28.228267 0-51.2-22.971733-51.2-51.2 0-17.732267 6.280533-42.666667 15.274667-60.637867C151.296 93.969067 232.567467 34.133333 273.066667 34.133333c14.557867 0 57.873067 33.8944 94.020266 69.0176C302.967467 177.698133 273.066667 302.4896 273.066667 426.666667c0 157.576533 69.2224 221.866667 238.933333 221.866666 169.710933 0 238.933333-64.290133 238.933333-221.866666 0-124.177067-29.9008-248.9856-94.020266-323.515734C693.0432 68.027733 736.3584 34.133333 750.933333 34.133333c40.4992 0 121.770667 59.835733 155.392 127.095467C915.319467 179.2 921.6 204.1344 921.6 221.866667c0 28.228267-22.971733 51.2-51.2 51.2-24.064 0-33.536-12.629333-49.544533-36.8128l-72.789334-109.192534a17.066667 17.066667 0 1 0-28.398933 18.944l72.721067 109.090134C808.5504 279.517867 826.88 307.2 870.4 307.2c47.0528 0 85.333333-38.280533 85.333333-85.333333 0-22.8352-7.5776-53.333333-18.858666-75.895467" fill="#2c2c2c" p-id="3770"></path></svg>