<?xml version="1.0" standalone="no"?><!DOCTYPE svg PUBLIC "-//W3C//DTD SVG 1.1//EN" "http://www.w3.org/Graphics/SVG/1.1/DTD/svg11.dtd"><svg t="1752903820613" class="icon" viewBox="0 0 1024 1024" version="1.1" xmlns="http://www.w3.org/2000/svg" p-id="5162" width="200" height="200" xmlns:xlink="http://www.w3.org/1999/xlink"><path d="M658.50446 95c2.4-26 42.6-28 73.2-17.4 1.8 0.6 52.4 19.4 38 30.4-55.8-14.8-112.8 36.4-111.2-13z m-402 13.8c61.4-16.2 124 40 122.2-14.2-2.6-28.4-46.8-30.6-80.4-19.2-2 0.6-57.4 21-41.8 33.4zM670.90446 320c-17.6 0-32 14.4-32 32s14.4 32 32 32 32-14.4 32-32-14.4-32-32-32z m-319.4 0c-17.6 0-32 14.4-32 32s14.4 32 32 32 32-14.4 32-32-14.4-32-32-32z m637 326.4c-19.8 48-81.4 22-127.8-2.4-27 138.2-116.2 222.8-252.6 248.4 0.6 1.8-4-0.2 48 2 67.2 2.8 127.6-6.2 194.8-16-39.6-27.6-22.8-74.2-19.6-76.2 2.8-1.8 29.4 3.4 43.2 23 17.2-25 56.8-29.6 60.4-27.2 3.2 2.2 13.2 41.8-13.8 69.2 9.4-1.8 16.4-3.2 19.6-4.2 5.2-1.6 35.4 22.6 6.2 26.6-28.6 4.6-45.2 10.2-94.2 21.6-91.8 21.4-171.8 23.6-235.4 25.6l2 23.2c7.6 36.2-46.8 48.6-55.2 12.4 1.6 35.8-54.2 43.6-56.8-2l-1 10.6c-1.4 36.8-56.8 35.8-56.6-1.2-15 27-56.2 13.6-52.8-17l2.4-24.8c-73.4 1.8-119.4 6.2-123.6 6.2-41.8 0-41.8-63.2 0-63.2 4.8 0 55.4 2.6 126.4 5.6-122.2-31-207.4-110-229.8-236.4-50 25.6-115 53.6-136.4 1.6-21-50.8 43-85.2 133.6-146.8 1.4-13.2 3.2-26.6 5.4-39.6-28.8-39.2-23.2-72.6-32.2-120.8-33.6 4.8-46.4-18.2-47.2-46.2 0.6-14.6 4.2-29.8 4.8-30.8 2.2-3.6 20.2-4 25.4-5.2 12-63.4 101.2-66.4 181.8-69 39.4-43.6 90.4-83 161.8-96.6C438.70446 58 462.50446 17 464.50446 16c3.4-1.6 42.4 8.6 52.6 46.4 10.4-17.6 36.6-22.8 39.2-21.4 2.2 1.2 12.8 30-9.8 51.8 80.6 7 144.4 49.4 192 101.4 72.2 3 143.6 11.8 154.2 68 5.4 1.2 23.2 1.6 25.4 5.2 0.6 1 4.2 16.2 4.8 30.8-1 27.8-13.6 50.8-47.2 46.2-6.4 34.6-5.4 65.8-17.4 95.4 4.8 23.4 8 47.6 9.6 72.8 74 50.8 140.6 85 120.6 133.8zM446.90446 319.8c1.8-88-75.8-84.4-157.2-80.6-43.4 2-77.8 3.8-91 27.8-22.8 41.8 11.8 185.8 46.4 202.4 19.6 9.4 146.8 15.8 172.6-14.2 16.4-18.8 30-98.8 29.2-135.4z m104 116.6c-8.6-24.8-12-60.2-30.6-65.4-4-1-18-1-22 0-20 5.6-21.6 44.2-34 74.4 30.8 0 38.6 19.4 47.4 19.4 8.6 0 12.6-22.6 39.2-28.4z m271.4-169.4c-13.2-24.2-49.6-25.8-93-27.8-80.4-3.8-156.4-7.6-154.6 80.6-1 36.6 10 116.6 26.4 135.6 26 29.8 153.2 23.6 172.6 14.2 31.6-15.2 73-157.8 48.6-202.6z" p-id="5163" fill="#2c2c2c"></path></svg>